<?xml version="1.0" encoding="utf-8"?>
<!-- Generator: Adobe Illustrator 23.0.3, SVG Export Plug-In . SVG Version: 6.00 Build 0)  -->
<svg version="1.1" id="Layer_1" xmlns="http://www.w3.org/2000/svg" xmlns:xlink="http://www.w3.org/1999/xlink" x="0px" y="0px"
	 viewBox="0 0 28 28" style="" xml:space="preserve">
<style type="text/css">
	.st0{fill:#0cf;}
</style>
<g>

	<path class="st0" d="M22.32,9.11c-0.356-0.508-0.687-0.902-1.106-1.321C8.444,9.314,4.277,18.563,3.972,19.212
		c1.474-3.176,3.164-6.366,6.239-8.526c3.328-2.325,6.938-3.71,10.711-3.99c-0.089-0.851-0.255-1.487-0.775-2.237
		c-0.902-1.283-2.275-2.045-3.722-2.224c-0.051-0.013-0.114-0.013-0.19-0.025c-2.567-0.204-5.184,0.165-7.663,1.144
		C8.342,2.947,8.039,2.528,7.657,2.109C6.653,1.016,5.281,0.291,3.896,0L3.209,1.906c0.965,0.343,1.74,0.687,2.452,1.462
		C6.08,3.825,6.194,4.27,6.004,4.689c-0.75,0.52-1.106,0.889-1.106,0.889c-2.3,2.199-3.876,4.931-4.701,7.852
		c-0.013,0.063-0.038,0.127-0.051,0.177c-0.343,1.424-0.089,2.974,0.813,4.257c0.52,0.737,1.639,1.818,2.694,2.007
		c0.267,0.558,0.571,1.093,0.94,1.614c0.8,1.144,1.78,2.071,2.871,2.808c3.545,2.477,7.903,3.52,12.147,2.949
		c0.165-0.013,0.331-0.038,0.482-0.076c0.28-0.051,0.558-0.101,0.838-0.152c0.204,0.19,0.52,0.217,0.762,0.051c0,0,0,0,0.013-0.013
		c0,0,0,0,0.013,0c0.242-0.165,0.318-0.47,0.204-0.737c0.152-0.242,0.293-0.495,0.432-0.737c0.089-0.139,0.165-0.28,0.242-0.432
		c1.982-3.8,2.49-8.234,1.386-12.415C23.666,11.499,23.12,10.254,22.32,9.11"/>

</g>
</svg>
