<?xml version="1.0" encoding="UTF-8"?>
<svg version="1.1" xmlns="http://www.w3.org/2000/svg" width="102" height="78">
<path d="M0 0 C0.66 0 1.32 0 2 0 C2.66 0.99 3.32 1.98 4 3 C6.56282742 3.72965366 6.56282742 3.72965366 9 4 C9.94693195 7.7016431 10.30443767 9.39112465 8.5625 12.875 C8.046875 13.57625 7.53125 14.2775 7 15 C8.17487036 14.24172908 9.33972592 13.46792245 10.5 12.6875 C11.47453125 12.04361328 11.47453125 12.04361328 12.46875 11.38671875 C13.22671875 10.70029297 13.22671875 10.70029297 14 10 C14 9.01 14 8.02 14 7 C16.475 6.505 16.475 6.505 19 6 C19 7.32 19 8.64 19 10 C19.639375 10.28875 20.27875 10.5775 20.9375 10.875 C23 12 23 12 24 14 C22.97176636 18.75558057 20.30772968 20.53058746 16.4609375 23.08203125 C15.97882813 23.38496094 15.49671875 23.68789063 15 24 C15.33 24.33 15.66 24.66 16 25 C16.33 24.34 16.66 23.68 17 23 C19.56634394 22.35841401 22.13823206 21.97800854 24.75 21.5625 C25.86375 21.2840625 25.86375 21.2840625 27 21 C27.33 20.34 27.66 19.68 28 19 C29.32 19 30.64 19 32 19 C32.22245393 20.60226955 32.42746669 22.20696767 32.625 23.8125 C32.74101563 24.70582031 32.85703125 25.59914063 32.9765625 26.51953125 C33 29 33 29 31 32 C27.47639547 33.43554259 23.74800535 33.07207703 20 33 C20.495 34.98 20.495 34.98 21 37 C21.39316406 36.49726562 21.78632812 35.99453125 22.19140625 35.4765625 C24 34 24 34 26.33984375 33.9609375 C27.19707031 34.09757812 28.05429688 34.23421875 28.9375 34.375 C32.31091841 34.89398745 34.72901414 35.04732262 38 34 C39.23593891 37.70781672 38.5678132 38.67510253 37.0625 42.1875 C36.68222656 43.08855469 36.30195312 43.98960938 35.91015625 44.91796875 C35.45962891 45.94857422 35.45962891 45.94857422 35 47 C33.56163249 46.88541307 32.12429034 46.75790884 30.6875 46.625 C29.88699219 46.55539063 29.08648437 46.48578125 28.26171875 46.4140625 C26 46 26 46 23 44 C22.67 44.99 22.34 45.98 22 47 C20.35 46.67 18.7 46.34 17 46 C16.91363281 45.443125 16.82726562 44.88625 16.73828125 44.3125 C15.4787926 37.47197446 13.59770465 31.63277854 7.80078125 27.390625 C1.98901196 24.14260323 -3.4017734 22.72325337 -10 24 C-16.0564488 26.13808351 -20.36389206 28.59953589 -24 34 C-25.3180087 37.32395283 -25.3180087 37.32395283 -26.25 40.8125 C-26.75273438 42.55466797 -26.75273438 42.55466797 -27.265625 44.33203125 C-27.50796875 45.21246094 -27.7503125 46.09289063 -28 47 C-28.99 46.34 -29.98 45.68 -31 45 C-31.99 45.66 -32.98 46.32 -34 47 C-38.65967847 47.49571048 -40.39763855 46.78892499 -44 44 C-44.86625 44 -45.7325 44 -46.625 44 C-47.40875 44 -48.1925 44 -49 44 C-49.66 43.01 -50.32 42.02 -51 41 C-49.02 40.505 -49.02 40.505 -47 40 C-46.34 37.69 -45.68 35.38 -45 33 C-42.875 32.25 -42.875 32.25 -40 32 C-37.96868328 33.28511874 -35.96722008 34.61876037 -34 36 C-32.68 36 -31.36 36 -30 36 C-31.6396875 35.38125 -31.6396875 35.38125 -33.3125 34.75 C-36.58541218 33.3632842 -37.99291736 31.96283628 -40 29 C-40.70125 28.67 -41.4025 28.34 -42.125 28 C-44 27 -44 27 -44.75 24.875 C-44.87375 23.946875 -44.87375 23.946875 -45 23 C-44.21625 22.731875 -43.4325 22.46375 -42.625 22.1875 C-39.71885077 21.15185568 -39.71885077 21.15185568 -38 18 C-35.6875 17.3125 -35.6875 17.3125 -33 18 C-30.61367902 20.85969443 -28 24.17636094 -28 28 C-26.68 27.67 -25.36 27.34 -24 27 C-24.78375 26.690625 -25.5675 26.38125 -26.375 26.0625 C-29.79580659 23.3747234 -29.87486844 21.33023094 -30.4453125 17.15625 C-31.0931492 14.63789887 -32.03848709 13.65403251 -34 12 C-33.67 11.01 -33.34 10.02 -33 9 C-31.20909747 8.80533668 -29.41723495 8.61948787 -27.625 8.4375 C-26.12839844 8.28087891 -26.12839844 8.28087891 -24.6015625 8.12109375 C-22 8 -22 8 -20 9 C-18.73238238 13.29581527 -18 16.50944298 -18 21 C-17.01 20.67 -16.02 20.34 -15 20 C-15.515625 19.505 -16.03125 19.01 -16.5625 18.5 C-18.43859913 15.23721891 -17.82491138 13.48607707 -17.19140625 9.8984375 C-16.94304374 7.43508692 -17.72479305 6.07221129 -19 4 C-18.67 3.34 -18.34 2.68 -18 2 C-16.37419034 2.11398665 -14.74932843 2.24155659 -13.125 2.375 C-12.22007813 2.44460938 -11.31515625 2.51421875 -10.3828125 2.5859375 C-8 3 -8 3 -6 5 C-6.0234375 8.2578125 -6.0234375 8.2578125 -6.375 12.125 C-6.48585937 13.40632812 -6.59671875 14.68765625 -6.7109375 16.0078125 C-6.85402344 17.48894531 -6.85402344 17.48894531 -7 19 C-6.01 18.67 -5.02 18.34 -4 18 C-4.2475 17.154375 -4.495 16.30875 -4.75 15.4375 C-5.04734846 11.34895862 -4.13152357 9.99934692 -1.9921875 6.6796875 C-0.71955627 4.52523306 -0.29916569 2.46811694 0 0 Z M5 16 C4.67 17.32 4.34 18.64 4 20 C5.485 20.99 5.485 20.99 7 22 C6.67 20.02 6.34 18.04 6 16 C5.67 16 5.34 16 5 16 Z " fill="#DF2D32" transform="translate(55,1)"/>
<path d="M0 0 C5.33970718 2.74104969 9.98700952 7.6524348 11.8828125 13.33984375 C11.8828125 15.97984375 11.8828125 18.61984375 11.8828125 21.33984375 C-1.3171875 21.33984375 -14.5171875 21.33984375 -28.1171875 21.33984375 C-29.24757754 15.68789353 -28.70926763 13.28288028 -26.1171875 8.33984375 C-19.30284735 0.01120579 -10.51078588 -3.27734837 0 0 Z " fill="#F4E810" transform="translate(58.1171875,26.66015625)"/>
<path d="M0 0 C2.475 0.495 2.475 0.495 5 1 C5.66 1 6.32 1 7 1 C7.33 0.67 7.66 0.34 8 0 C14.23529412 -0.47058824 14.23529412 -0.47058824 17.4375 1.5 C17.953125 1.995 18.46875 2.49 19 3 C18.814375 3.61875 18.62875 4.2375 18.4375 4.875 C17.76313824 7.04160178 17.76313824 7.04160178 19 9 C19.1875 12.5 19.1875 12.5 19 16 C17 18 17 18 14.90625 18.265625 C14.1121875 18.26046875 13.318125 18.2553125 12.5 18.25 C11.7059375 18.25515625 10.911875 18.2603125 10.09375 18.265625 C8 18 8 18 6 16 C5.67 16.66 5.34 17.32 5 18 C3.35 18 1.7 18 0 18 C0 12.06 0 6.12 0 0 Z M5 8 C5 9.32 5 10.64 5 12 C7.97 12.33 10.94 12.66 14 13 C12.09954692 10.7102606 12.09954692 10.7102606 8.9375 10.5 C7.968125 10.335 6.99875 10.17 6 10 C5.67 9.34 5.34 8.68 5 8 Z " fill="#D42C30" transform="translate(64,50)"/>
<path d="M0 0 C1.65 0 3.3 0 5 0 C5 2.64 5 5.28 5 8 C4.21625 7.79375 3.4325 7.5875 2.625 7.375 C1.325625 7.189375 1.325625 7.189375 0 7 C-2.28728734 8.83883881 -2.28728734 8.83883881 -2.125 11.625 C-2.08375 12.40875 -2.0425 13.1925 -2 14 C-3.98 14 -5.96 14 -8 14 C-8 14.66 -8 15.32 -8 16 C-5.69 16 -3.38 16 -1 16 C-1 17.65 -1 19.3 -1 21 C-4.96 21 -8.92 21 -13 21 C-13 15.06 -13 9.12 -13 3 C-9.04 3 -5.08 3 -1 3 C-0.67 2.01 -0.34 1.02 0 0 Z M0 3 C1 5 1 5 1 5 Z " fill="#E93237" transform="translate(97,47)"/>
<path d="M0 0 C0.77988281 -0.01417969 1.55976562 -0.02835938 2.36328125 -0.04296875 C4.6875 0.1875 4.6875 0.1875 8.6875 2.1875 C8.6875 7.4675 8.6875 12.7475 8.6875 18.1875 C7.0375 18.1875 5.3875 18.1875 3.6875 18.1875 C3.3575 16.5375 3.0275 14.8875 2.6875 13.1875 C2.0275 13.1875 1.3675 13.1875 0.6875 13.1875 C0.3575 14.8375 0.0275 16.4875 -0.3125 18.1875 C-1.9625 18.1875 -3.6125 18.1875 -5.3125 18.1875 C-5.33934312 15.37493719 -5.35926188 12.56262759 -5.375 9.75 C-5.38337891 8.94755859 -5.39175781 8.14511719 -5.40039062 7.31835938 C-5.4090143 5.27454779 -5.3647815 3.23066098 -5.3125 1.1875 C-3.74222683 -0.38277317 -2.16980053 0.01775614 0 0 Z " fill="#DC2E33" transform="translate(54.3125,49.8125)"/>
<path d="M0 0 C1.2065625 0.0309375 1.2065625 0.0309375 2.4375 0.0625 C3.0975 1.3825 3.7575 2.7025 4.4375 4.0625 C5.0975 2.7425 5.7575 1.4225 6.4375 0.0625 C7.7575 0.0625 9.0775 0.0625 10.4375 0.0625 C10.4375 6.0025 10.4375 11.9425 10.4375 18.0625 C8.7875 18.0625 7.1375 18.0625 5.4375 18.0625 C4.4475 16.0825 3.4575 14.1025 2.4375 12.0625 C2.1075 14.0425 1.7775 16.0225 1.4375 18.0625 C-0.2125 18.0625 -1.8625 18.0625 -3.5625 18.0625 C-3.58934312 15.24993719 -3.60926188 12.43762759 -3.625 9.625 C-3.63337891 8.82255859 -3.64175781 8.02011719 -3.65039062 7.19335938 C-3.6590143 5.14954779 -3.6147815 3.10566098 -3.5625 1.0625 C-2.5625 0.0625 -2.5625 0.0625 0 0 Z " fill="#E03035" transform="translate(37.5625,49.9375)"/>
<path d="M0 0 C3 2 3 2 3.6875 4.125 C3.8421875 5.053125 3.8421875 5.053125 4 6 C3.01 6.495 3.01 6.495 2 7 C2.66 7.66 3.32 8.32 4 9 C4.5584591 14.24951553 4.5584591 14.24951553 2.76171875 16.6640625 C-0.03143692 18.78215394 -2.50747488 18.46816338 -5.90234375 18.36328125 C-8 18 -8 18 -10.0625 16.125 C-11 14 -11 14 -11 12 C-8.36 12 -5.72 12 -3 12 C-3.94875 11.731875 -4.8975 11.46375 -5.875 11.1875 C-9 10 -9 10 -11 7 C-10.8125 4.4375 -10.8125 4.4375 -10 2 C-6.31282562 -0.45811625 -4.35654296 -0.31118164 0 0 Z " fill="#DD2D31" transform="translate(15,50)"/>
<path d="M0 0 C8 0 16 0 24 0 C24 2.64 24 5.28 24 8 C21.36 8 18.72 8 16 8 C16 7.01 16 6.02 16 5 C15.34 5 14.68 5 14 5 C14 5.99 14 6.98 14 8 C9.20832961 8 6.19508438 7.24736663 2 5 C2 5.99 2 6.98 2 8 C1.01 8 0.02 8 -1 8 C-1 7.01 -1 6.02 -1 5 C-12.22 5 -23.44 5 -35 5 C-35 4.67 -35 4.34 -35 4 C-23.78 4 -12.56 4 -1 4 C-0.67 2.68 -0.34 1.36 0 0 Z " fill="#CD2530" transform="translate(39,69)"/>
<path d="M0 0 C2.475 0.495 2.475 0.495 5 1 C5 4.96 5 8.92 5 13 C5.66 12.67 6.32 12.34 7 12 C7.46898963 9.1840151 7.46898963 9.1840151 7.625 5.9375 C7.73714844 4.28041016 7.73714844 4.28041016 7.8515625 2.58984375 C7.90054687 1.73519531 7.94953125 0.88054688 8 0 C9.65 0 11.3 0 13 0 C13.0809723 2.43816585 13.14046972 4.87364384 13.1875 7.3125 C13.22520508 8.34793945 13.22520508 8.34793945 13.26367188 9.40429688 C13.33736845 14.48936074 13.33736845 14.48936074 11.70703125 16.95703125 C8.81244293 18.72557834 6.28417924 18.35187635 3 18 C1.29296875 16.95703125 1.29296875 16.95703125 0 15 C-0.2172101 12.35003674 -0.28351554 9.94923442 -0.1875 7.3125 C-0.17396484 6.61060547 -0.16042969 5.90871094 -0.14648438 5.18554688 C-0.11120182 3.45670171 -0.05739583 1.72825235 0 0 Z " fill="#DF2F33" transform="translate(20,50)"/>
<path d="M0 0 C1.32 0 2.64 0 4 0 C4 5.94 4 11.88 4 18 C2.68 18 1.36 18 0 18 C0 12.06 0 6.12 0 0 Z " fill="#EC3339" transform="translate(64,50)"/>
<path d="M0 0 C3.96 0 7.92 0 12 0 C12 2.64 12 5.28 12 8 C10.02 8 8.04 8 6 8 C5.7525 7.236875 5.505 6.47375 5.25 5.6875 C4.04375457 2.54079672 4.04375457 2.54079672 0 0 Z " fill="#951E22" transform="translate(51,69)"/>
<path d="M0 0 C1.2065625 0.0309375 1.2065625 0.0309375 2.4375 0.0625 C2.4375 2.7025 2.4375 5.3425 2.4375 8.0625 C-2.4375 7.1875 -2.4375 7.1875 -3.5625 6.0625 C-3.6875 3.5625 -3.6875 3.5625 -3.5625 1.0625 C-2.5625 0.0625 -2.5625 0.0625 0 0 Z M-2.5625 3.0625 C-1.5625 5.0625 -1.5625 5.0625 -1.5625 5.0625 Z " fill="#242223" transform="translate(99.5625,46.9375)"/>
<path d="M0 0 C10.89 0 21.78 0 33 0 C33 0.33 33 0.66 33 1 C22.11 1 11.22 1 0 1 C0 0.67 0 0.34 0 0 Z " fill="#EC3136" transform="translate(64,73)"/>
<path d="M0 0 C3 1 3 1 6 3 C6 4.32 6 5.64 6 7 C5.34 7 4.68 7 4 7 C4 6.01 4 5.02 4 4 C3.34 4 2.68 4 2 4 C2 4.99 2 5.98 2 7 C1.34 7 0.68 7 0 7 C0 4.69 0 2.38 0 0 Z " fill="#E83033" transform="translate(51,70)"/>
<path d="M0 0 C0.66 0.33 1.32 0.66 2 1 C2.125 3.375 2.125 3.375 2 6 C1.34 6.66 0.68 7.32 0 8 C-2.125 7.625 -2.125 7.625 -4 7 C-3.34 6.34 -2.68 5.68 -2 5 C-1.29289322 3.35008418 -0.62056011 1.68437744 0 0 Z " fill="#C4282A" transform="translate(49,69)"/>
</svg>
